# xmcd CD database file
#
# Track frame offsets:
#	150
#	6736
#	19853
#	45799
#	64956
#	81298
#	102012
#	125264
#	137969
#	156140
#	188743
#	212217
#	217617
#
# Disc length: 3098 seconds
#
# Revision: 0
# Processed by: cddbd v1.4PL0 Copyright (c) Steve Scherf et al.
# Submitted via: CDex 1.50
#
DISCID=ad0c180d
DTITLE=R.U.B - are you be
DYEAR=1900
DGENRE=Jazz
TTITLE0=inroad 
TTITLE1=extracto 
TTITLE2=overstepper 
TTITLE3=work-a-day 
TTITLE4=undercurrent 
TTITLE5=fond illusion 
TTITLE6=adhere and now 
TTITLE7=you don't love what no is 
TTITLE8=mal venus 
TTITLE9=blue grit 
TTITLE10=reacharound 
TTITLE11=gobble 
TTITLE12=scenic route
EXTD=
EXTT0=
EXTT1=
EXTT2=
EXTT3=
EXTT4=
EXTT5=
EXTT6=
EXTT7=
EXTT8=
EXTT9=
EXTT10=
EXTT11=
EXTT12=
PLAYORDER=
